<svg xmlns="http://www.w3.org/2000/svg" width="460" height="392" viewBox="0 0 459.9 392"><title>KI</title><desc>Vectorized by Shizuka Kamishima, KI device symbol from Myst Online Uru Live by Cyan Worlds</desc><style>.a{fill:none;}</style><g><path d="M227.5 392.4c-101.8 0-184.5-82.5-184.5-184.3C43 104.4 128 22.8 229.2 23.5c100.4 0.7 182.8 83.3 182.7 184.6C411.9 309.9 329.4 392.4 227.5 392.4zM386 208.1c0-87.1-70.6-158-157.6-158.1C140.9 49.9 70 120.6 70 207.9c0 87.1 70.6 158 157.6 158.1C315 366.1 385.9 295.4 386 208.1z"/><path d="M411.4 114.3c-15.2-33.2-36.9-59.3-70.1-76.5 5.7-2 9.8-3.4 13.9-4.8 28.8-9.8 57.6-19.6 86.3-29.6 3.5-1.2 5.3-0.6 7.3 2.4 3.2 4.9 6.9 9.4 10.2 14.2 0.8 1.2 1.3 3.6 0.7 4.7 -15.2 28.8-30.6 57.6-45.9 86.3C413.4 111.7 412.8 112.3 411.4 114.3z"/><path d="M116.4 32.6C84.8 51.9 61.5 77.1 49.2 111.5c-1.2-0.8-1.7-1-1.9-1.3 -14.5-29.4-28.9-58.8-43.6-88.1 -1.7-3.4-1.7-5.5 1.3-8 3.7-3.1 6.8-6.8 10.5-9.9 1.4-1.1 4-2 5.5-1.5 30.7 9.4 61.3 18.9 92 28.5C113.6 31.2 114.2 31.6 116.4 32.6z"/><path d="M386 208.1c0 87.3-71 158-158.4 157.9C140.6 365.8 70 295 70 207.9c0-87.3 71-158 158.4-157.9C315.4 50.1 386 121 386 208.1zM227.3 332.4c68.6 0.1 124.4-55.4 124.6-124 0.2-68.1-55.3-124-122.3-124.9 -66.9-0.9-126.3 52.6-126.6 124.1C102.8 276.5 158.4 332.3 227.3 332.4z" class="a"/><path d="M227.3 332.4c-68.9-0.1-124.6-55.9-124.3-124.8 0.3-71.5 59.7-125 126.6-124.1 67.1 0.9 122.5 56.8 122.3 124.9C351.8 277 295.9 332.5 227.3 332.4zM139.3 147.1c-27.4 37.2-28.4 99.3 15.1 139.9 42.6 39.7 108.6 38.6 149.6-2.3 42.3-42.2 38.6-103.6 12.4-137.9C265.2 193.1 189.2 191.6 139.3 147.1zM302.8 130.6c-43.8-44.5-116.4-37.2-150 1C197.9 172.6 266.8 166.3 302.8 130.6z"/><path d="M139.3 147.1c49.9 44.5 125.9 46 177.1-0.3 26.2 34.4 30 95.7-12.4 137.9 -41 40.9-107 42-149.6 2.3C110.9 246.4 111.9 184.2 139.3 147.1z" class="a"/><path d="M302.8 130.6c-36 35.7-104.9 42-150 1C186.4 93.4 259 86.2 302.8 130.6z" class="a"/></g></svg>
