<svg xmlns="http://www.w3.org/2000/svg" width="275" height="275" viewBox="0 0 275 275"><title>Sakura flower</title><desc>Vector by Shizuka Kamishima</desc><g><path d="M87.2 176.7c-4.4-1.2-8.4 0.4-12.5 0.3 -17.4-0.1-33.6-4.8-49.4-11.5 -6.6-2.8-12.8-6.1-19-9.7 -2.6-1.5-2.9-3.3-1.4-5.9 3.8-6.4 9.6-10.7 15.6-15.5 -5.1-7-10.4-13.9-13.9-22.4 4.8-5.6 11.7-8.7 18.4-11.6 16-7.1 32.4-6.5 49-2.2 7.9 2.1 15.8 4.2 23.9 7.3 -1.5-5.1-3.9-9.2-5.5-13.6 -2.5-6.9-3.5-14-4-21.1 -0.7-9.3-0.1-18.7 1.1-27.9 0.8-6.1 2.4-12.1 3.6-18.1 0.6-2.8 1.3-5.5 1.9-8.3 0.8-3.3 2.9-3.9 5.9-3.1 5.3 1.5 9.7 4.6 13.9 7.8 1.5 1.1 3.1 2.1 4.6 3.8 5.6-6.9 11.4-13.5 18.8-19.3 24.7 22.2 31.5 50.3 27.9 82.3 23.6-22.6 53-28.1 83.7-30.1 3 7.5 0.7 15.1-3.4 26.2 6 1.6 11.7 4.1 17.3 6.8 1.9 0.9 3.5 2.1 5.2 3.1 1.8 1.1 1.6 3.2 0.9 4.8 -4.3 10.8-10.3 20.5-19.2 28.3 -6.3 5.6-13.1 10.4-20.9 13.3 -8 3-15.7 6.8-24.6 6.6 -0.5 0-1.1 0.4-2.3 0.8 5.6 2.6 10 6 14.3 9.7 7.8 6.6 13.9 14.5 19.4 22.9 5.2 8.1 9.5 16.7 13.3 25.6 1.8 4.3 3.6 8.7 4.6 13.3 0.4 1.9 0.1 2.9-1.8 3.9 -5.8 3-12 2-18.1 1.9 -1.5 0-3 0.8-4.8-1 -0.6 5.9-0.9 11-2.1 16 -0.5 2.1-0.7 4.2-1.2 6.3 -1 4.3-2.2 4.8-6.7 4.5 -11.5-0.7-22-4.9-31.5-11 -9.3-6-17-13.8-22.8-23.4 -3-4.8-5-10-7-15.5 -2.4 7.7-5 14.8-8.9 21.5 -7.9 13.8-18.9 24.6-31.1 34.5 -5.4 4.4-11.1 8.4-17 12.3 -2.3 1.5-3.6 0.8-4.9-1.2 -3.3-4.9-4.9-10.5-5.9-16.3 -0.3-1.8-0.8-3.5-1.2-5.5 -8 2.1-15.9 2.7-24 2.4 -2.3-0.1-2.9-0.9-3.3-2.7 -1.8-8.5-1.4-16.9 0.1-25.4 2.2-13 8-24.4 16.4-34.5C81.5 183 84.2 180 87.2 176.7z"/></g></svg>
